<?xml version="1.0" encoding="utf-8"?>
<!-- Generator: Adobe Illustrator 15.1.0, SVG Export Plug-In . SVG Version: 6.00 Build 0)  -->
<!DOCTYPE svg PUBLIC "-//W3C//DTD SVG 1.1//EN" "http://www.w3.org/Graphics/SVG/1.1/DTD/svg11.dtd">
<svg version="1.1" id="Layer_1" xmlns="http://www.w3.org/2000/svg" xmlns:xlink="http://www.w3.org/1999/xlink" x="0px" y="0px"
	 width="595.28px" height="595.28px" viewBox="0 0 595.28 595.28" enable-background="new 0 0 595.28 595.28" xml:space="preserve">
<g>
	<path fill="#7CBC00" d="M304.298,175.416c0.697-5.658,2.646-14.291,7.926-23.277c0.65,0.066,1.309,0.104,1.975,0.104
		c11.008,0,19.932-8.924,19.932-19.932s-8.924-19.932-19.932-19.932s-19.931,8.924-19.931,19.932c0,2.947,0.659,5.736,1.806,8.254
		c-7.867,12.83-11.001,26.033-11.732,35.395c-48.102,5.26-85.192,38.602-85.192,78.979c0,39.701,35.854,59.803,82.779,63.373
		c-1.722,4.643-4.724,10.537-9.774,17.934c-0.09,0.066-30.333,22.164-30.993,73.676c0,0-1.323,22.486,5.292,25.131
		c6.613,2.646,7.148-13.887,7.543-19.178c0.208-2.791,2.328-10.18,4.287-16.541c2.286,13.084,6.561,24.811,10.324,32.736
		c9.235,19.439-23.944,24.852-11.973,41.094c11.249,15.262,37.789,17.701,41.57-31.047c3.785,48.748,30.324,46.309,41.572,31.047
		c11.974-16.242-21.206-21.654-11.974-41.094c3.679-7.742,7.837-19.121,10.159-31.842c1.877,6.146,3.814,12.986,4.014,15.646
		c0.394,5.291,0.928,21.824,7.542,19.178c6.613-2.645,5.29-25.131,5.29-25.131c-0.59-46.049-24.809-68.578-30.004-72.891
		c-5.408-7.811-8.582-13.994-10.357-18.811c46.385-3.801,81.686-23.891,81.686-63.281
		C396.132,212.719,355.585,178.189,304.298,175.416z"/>
	<circle cx="297.64" cy="247.059" r="50.373"/>
	<circle fill="#F5F5F5" cx="297.984" cy="236.186" r="16.217"/>
</g>
</svg>
