<?xml version="1.0" encoding="utf-8"?>
<!-- Generator: Adobe Illustrator 15.1.0, SVG Export Plug-In . SVG Version: 6.00 Build 0)  -->
<!DOCTYPE svg PUBLIC "-//W3C//DTD SVG 1.1//EN" "http://www.w3.org/Graphics/SVG/1.1/DTD/svg11.dtd">
<svg version="1.1" id="Layer_1" xmlns="http://www.w3.org/2000/svg" xmlns:xlink="http://www.w3.org/1999/xlink" x="0px" y="0px"
	 width="595.28px" height="595.28px" viewBox="0 0 595.28 595.28" enable-background="new 0 0 595.28 595.28" xml:space="preserve">
<g>
	<path fill="#D4EFFC" d="M389.891,315.306c1.744-8.063,2.998-17.565,3.719-28.727c0.469-7.263,0.713-15.222,0.713-23.968
		c0-52.643-43.285-95.322-96.682-95.322c-53.395,0-96.684,42.679-96.684,95.322c0,8.747,0.246,16.705,0.715,23.968
		c0.707,10.97,1.928,20.34,3.625,28.313C216.498,318.006,302.033,340.098,389.891,315.306z"/>
	<path fill="#7CBC00" d="M372.795,319.563c0.402-2.379,0.633-4.855,0.633-7.459c0-31.314-30.076-56.929-68.117-58.982
		c0.518-4.201,1.963-10.604,5.881-17.269c0.48,0.048,0.969,0.074,1.465,0.074c8.162,0,14.783-6.618,14.783-14.782
		c0-8.167-6.621-14.785-14.783-14.785c-8.168,0-14.786,6.618-14.786,14.785c0,2.187,0.486,4.255,1.338,6.122
		c-5.836,9.519-8.157,19.312-8.704,26.257c-35.68,3.901-63.189,28.631-63.189,58.581c0,2.779,0.256,5.42,0.713,7.943
		C258.431,325.795,314.02,332.341,372.795,319.563z"/>
	<path d="M332.34,325.605c3.424-5.643,5.395-12.264,5.395-19.344c0-20.637-16.729-37.368-37.361-37.368
		c-20.639,0-37.366,16.73-37.366,37.368c0,7.044,1.953,13.632,5.342,19.255C287.191,327.108,309.047,327.614,332.34,325.605z"/>
	<path fill="#ED3D2B" d="M393.609,286.579c-0.721,11.162-1.975,20.663-3.719,28.727c-5.715,1.613-11.42,3.022-17.096,4.257
		c-13.754,2.989-27.33,4.912-40.455,6.043c-23.293,2.009-45.149,1.503-63.991-0.089c-15.9-1.345-29.662-3.454-40.32-5.47
		c-11.795-2.231-19.807-4.342-22.732-5.154c-1.697-7.974-2.918-17.343-3.625-28.313c-49.316,11.344-83.295,31.017-83.295,53.391
		c0,23.866,38.67,45.851,93.377,57.505c15.941,3.396,33.24,5.916,51.348,7.348c2.088,0.166,4.184,0.314,6.291,0.449
		c9.252,0.596,18.691,0.912,28.248,0.912c9.295,0,18.477-0.299,27.485-0.861c2.363-0.148,4.715-0.314,7.053-0.5
		c18.105-1.432,35.404-3.951,51.346-7.346c54.709-11.654,93.381-33.641,93.381-57.507
		C476.904,317.596,442.924,297.923,393.609,286.579z"/>
	<circle fill="#F5F5F5" cx="300.626" cy="298.194" r="12.031"/>
	<g>
		<path fill="#BF081F" d="M239.07,417.584c10.176,0,19.066-5.117,24.031-12.762c-18.107-1.432-35.406-3.951-51.348-7.348
			C214.865,409.027,225.896,417.584,239.07,417.584z"/>
		<path fill="#BF081F" d="M269.392,405.271c2.041,12.854,13.723,22.721,27.869,22.721c14.131,0,25.799-9.842,27.864-22.67
			c-9.008,0.563-18.189,0.861-27.485,0.861C288.083,406.184,278.644,405.867,269.392,405.271z"/>
		<path fill="#BF081F" d="M332.178,404.822c4.967,7.645,13.857,12.762,24.031,12.762c13.172,0,24.203-8.557,27.314-20.107
			C367.582,400.871,350.283,403.391,332.178,404.822z"/>
	</g>
	<g>
		<g>
			<g>
				<path fill="#FCF129" d="M313.434,366.371c0,8.723-7.07,15.793-15.793,15.793c-8.721,0-15.795-7.07-15.795-15.793
					c0-8.719,7.074-15.793,15.795-15.793C306.363,350.578,313.434,357.652,313.434,366.371z"/>
			</g>
			<g>
				<path fill="#FCF129" d="M232.546,354.924c0,8.723-7.072,15.793-15.797,15.793c-8.719,0-15.793-7.07-15.793-15.793
					s7.074-15.795,15.793-15.795C225.474,339.129,232.546,346.201,232.546,354.924z"/>
			</g>
			<g>
				<circle fill="#FCF129" cx="376.807" cy="354.924" r="15.795"/>
			</g>
		</g>
	</g>
</g>
</svg>
