<?xml version="1.0" standalone="no"?>
<!DOCTYPE svg PUBLIC "-//W3C//DTD SVG 20010904//EN"
 "http://www.w3.org/TR/2001/REC-SVG-20010904/DTD/svg10.dtd">
<svg version="1.0" xmlns="http://www.w3.org/2000/svg"
 width="821.000000pt" height="1544.000000pt" viewBox="0 0 821.000000 1544.000000"
 preserveAspectRatio="xMidYMid meet">

<g transform="translate(0.000000,1544.000000) scale(0.100000,-0.100000)"
fill="#000000" stroke="none">
<path d="M3825 11913 c-909 -122 -1639 -827 -1794 -1733 -114 -662 104 -1353
577 -1828 767 -769 1955 -839 2809 -165 101 79 281 264 362 371 306 405 461
925 422 1419 -46 582 -310 1097 -750 1465 -249 207 -564 364 -881 438 -216 50
-519 63 -745 33z m420 -968 c195 -35 387 -178 474 -356 61 -124 74 -190 69
-334 -7 -191 -62 -318 -193 -450 -132 -132 -257 -186 -451 -193 -144 -5 -209
9 -332 69 -407 199 -495 754 -171 1078 163 162 373 227 604 186z"/>
</g>
</svg>
