<?xml version="1.0" encoding="utf-8"?>
<!-- Generator: Adobe Illustrator 15.1.0, SVG Export Plug-In . SVG Version: 6.00 Build 0)  -->
<!DOCTYPE svg PUBLIC "-//W3C//DTD SVG 1.1//EN" "http://www.w3.org/Graphics/SVG/1.1/DTD/svg11.dtd">
<svg version="1.1" id="Layer_1" xmlns="http://www.w3.org/2000/svg" xmlns:xlink="http://www.w3.org/1999/xlink" x="0px" y="0px"
	 width="595.28px" height="595.28px" viewBox="0 0 595.28 595.28" enable-background="new 0 0 595.28 595.28" xml:space="preserve">
<g>
	<path fill="#7CBC00" d="M304.297,175.416c0.697-5.66,2.646-14.293,7.926-23.275c0.65,0.063,1.309,0.1,1.975,0.1
		c11.008,0,19.932-8.924,19.932-19.932c0-11.006-8.924-19.93-19.932-19.93s-19.929,8.924-19.929,19.93
		c0,2.949,0.658,5.736,1.805,8.256c-7.869,12.83-11,26.033-11.732,35.395c-48.102,5.26-85.191,38.604-85.191,78.977
		c0,39.703,35.854,59.805,82.779,63.373c-2.094,5.645-6.07,13.131-13.322,22.918c-1.791,2.416-3.328,4.932-4.672,7.512l-6.604-1.391
		c0,0-16.576-15.951-19.383-20.453c-2.807-4.504-10.957-18.9-15.586-13.484c-4.629,5.414,6.982,24.713,6.982,24.713
		c8.441,15.607,18.369,26.498,27.764,34.066c-2.434,22.969,5.232,46.691,11.498,59.877c9.234,19.441-23.943,24.854-11.973,41.096
		c11.248,15.262,37.789,17.701,41.57-31.045c3.785,48.746,30.324,46.307,41.57,31.045c11.975-16.242-21.205-21.654-11.971-41.096
		c3.676-7.74,7.836-19.119,10.158-31.838c1.879,6.145,3.816,12.982,4.014,15.643c0.395,5.293,0.928,21.826,7.541,19.182
		c6.615-2.646,5.293-25.133,5.293-25.133c-0.594-46.057-24.816-68.586-30.01-72.891c-5.406-7.811-8.576-13.994-10.355-18.814
		c46.387-3.799,81.688-23.885,81.688-63.279C396.131,212.721,355.584,178.189,304.297,175.416z"/>
	<circle cx="297.639" cy="247.059" r="50.373"/>
	<path fill="#F5F5F5" d="M297.985,219.967c-8.957,0-16.217,7.262-16.217,16.219c0,8.955,7.26,16.215,16.217,16.215
		c8.953,0,16.214-7.26,16.214-16.215C314.199,227.229,306.938,219.967,297.985,219.967z"/>
</g>
</svg>
