<svg width="503" height="353" viewBox="0 0 503 353" fill="none" xmlns="http://www.w3.org/2000/svg">
<mask id="path-1-outside-1_1_5" maskUnits="userSpaceOnUse" x="0.880005" y="0.320007" width="502" height="353" fill="black">
<rect fill="white" x="0.880005" y="0.320007" width="502" height="353"/>
<path d="M34.584 14.44V73H24.984V14.44H5.88V5.80001H53.688V14.44H34.584Z"/>
<path d="M74.7713 42.76V73H65.1713V5.80001H74.7713V34.12H106.931V5.80001H116.531V73H106.931V42.76H74.7713Z"/>
<path d="M184.196 67.048L173.06 73.48H144.932L133.796 67.048V11.752L144.932 5.32001H173.06L184.196 11.752V67.048ZM143.396 13.96V64.84H174.596V13.96H143.396Z"/>
<path d="M260.044 73V18.28H259.852L240.076 73H230.476L210.796 18.28H210.604V73H201.484V5.80001H215.02L235.18 61.864H235.372L255.628 5.80001H269.164V73H260.044Z"/>
<path d="M315.605 5.80001L339.605 73H330.197L324.533 57.064H294.773L289.109 73H279.701L303.701 5.80001H315.605ZM309.557 15.304L297.845 48.424H321.461L309.749 15.304H309.557Z"/>
<path d="M350.171 37.48V11.752L361.307 5.32001H383.675L394.811 11.752V21.64H385.211V13.96H359.771V34.312H383.675L394.811 40.744V67.048L383.675 73.48H360.347L349.211 67.048V57.16H358.811V64.84H385.211V43.912H361.307L350.171 37.48Z"/>
<path d="M11.64 174.48V148.752L22.776 142.32H45.144L56.28 148.752V158.64H46.68V150.96H21.24V171.312H45.144L56.28 177.744V204.048L45.144 210.48H21.816L10.68 204.048V194.16H20.28V201.84H46.68V180.912H22.776L11.64 174.48Z"/>
<path d="M83.115 179.76V201.36H111.819V210H73.515V142.8H111.819V151.44H83.115V171.12H106.059V179.76H83.115Z"/>
<path d="M183.825 210V155.28H183.633L163.857 210H154.257L134.577 155.28H134.385V210H125.265V142.8H138.801L158.961 198.864H159.153L179.409 142.8H192.945V210H183.825Z"/>
<path d="M219.803 179.76V201.36H248.507V210H210.202V142.8H248.507V151.44H219.803V171.12H242.747V179.76H219.803Z"/>
<path d="M286.048 183.216H271.552V210H261.953V142.8H296.417L307.552 149.232V176.784L296.417 183.216L311.872 210H301.216L286.048 183.216ZM271.552 151.44V174.576H297.953V151.44H271.552Z"/>
<path d="M324.859 210V142.8H334.459V210H324.859Z"/>
<path d="M380.949 142.8L404.949 210H395.541L389.877 194.064H360.117L354.453 210H345.045L369.045 142.8H380.949ZM374.901 152.304L363.189 185.424H386.805L375.093 152.304H374.901Z"/>
<path d="M415.515 173.52V139.92H429.915V143.952L419.547 173.52H415.515Z"/>
<path d="M447.203 174.48V148.752L458.339 142.32H480.707L491.842 148.752V158.64H482.242V150.96H456.802V171.312H480.707L491.842 177.744V204.048L480.707 210.48H457.379L446.242 204.048V194.16H455.842V201.84H482.242V180.912H458.339L447.203 174.48Z"/>
<path d="M11.64 347V279.8H45.144L56.28 286.232V314.744L45.144 321.176H21.24V347H11.64ZM21.24 288.44V312.536H46.68V288.44H21.24Z"/>
<path d="M122.04 341.048L110.904 347.48H82.776L71.64 341.048V285.752L82.776 279.32H110.904L122.04 285.752V341.048ZM81.24 287.96V338.84H112.44V287.96H81.24Z"/>
<path d="M163.424 320.216H148.928V347H139.327V279.8H173.792L184.928 286.232V313.784L173.792 320.216L189.247 347H178.592L163.424 320.216ZM148.928 288.44V311.576H175.327V288.44H148.928Z"/>
<path d="M225.178 288.44V347H215.578V288.44H196.474V279.8H244.282V288.44H225.178Z"/>
<path d="M265.365 316.76V347H255.765V279.8H295.029V288.44H265.365V308.12H289.269V316.76H265.365Z"/>
<path d="M356.978 341.048L345.841 347.48H317.714L306.578 341.048V285.752L317.714 279.32H345.841L356.978 285.752V341.048ZM316.177 287.96V338.84H347.378V287.96H316.177Z"/>
<path d="M374.265 347V279.8H383.865V338.36H408.729V347H374.265Z"/>
<path d="M420.203 347V279.8H429.802V347H420.203Z"/>
<path d="M497.509 341.048L486.373 347.48H458.245L447.109 341.048V285.752L458.245 279.32H486.373L497.509 285.752V341.048ZM456.709 287.96V338.84H487.909V287.96H456.709Z"/>
</mask>
<path d="M34.584 14.44V73H24.984V14.44H5.88V5.80001H53.688V14.44H34.584Z" stroke="white" stroke-width="10" mask="url(#path-1-outside-1_1_5)"/>
<path d="M74.7713 42.76V73H65.1713V5.80001H74.7713V34.12H106.931V5.80001H116.531V73H106.931V42.76H74.7713Z" stroke="white" stroke-width="10" mask="url(#path-1-outside-1_1_5)"/>
<path d="M184.196 67.048L173.06 73.48H144.932L133.796 67.048V11.752L144.932 5.32001H173.06L184.196 11.752V67.048ZM143.396 13.96V64.84H174.596V13.96H143.396Z" stroke="white" stroke-width="10" mask="url(#path-1-outside-1_1_5)"/>
<path d="M260.044 73V18.28H259.852L240.076 73H230.476L210.796 18.28H210.604V73H201.484V5.80001H215.02L235.18 61.864H235.372L255.628 5.80001H269.164V73H260.044Z" stroke="white" stroke-width="10" mask="url(#path-1-outside-1_1_5)"/>
<path d="M315.605 5.80001L339.605 73H330.197L324.533 57.064H294.773L289.109 73H279.701L303.701 5.80001H315.605ZM309.557 15.304L297.845 48.424H321.461L309.749 15.304H309.557Z" stroke="white" stroke-width="10" mask="url(#path-1-outside-1_1_5)"/>
<path d="M350.171 37.48V11.752L361.307 5.32001H383.675L394.811 11.752V21.64H385.211V13.96H359.771V34.312H383.675L394.811 40.744V67.048L383.675 73.48H360.347L349.211 67.048V57.16H358.811V64.84H385.211V43.912H361.307L350.171 37.48Z" stroke="white" stroke-width="10" mask="url(#path-1-outside-1_1_5)"/>
<path d="M11.64 174.48V148.752L22.776 142.32H45.144L56.28 148.752V158.64H46.68V150.96H21.24V171.312H45.144L56.28 177.744V204.048L45.144 210.48H21.816L10.68 204.048V194.16H20.28V201.84H46.68V180.912H22.776L11.64 174.48Z" stroke="white" stroke-width="10" mask="url(#path-1-outside-1_1_5)"/>
<path d="M83.115 179.76V201.36H111.819V210H73.515V142.8H111.819V151.44H83.115V171.12H106.059V179.76H83.115Z" stroke="white" stroke-width="10" mask="url(#path-1-outside-1_1_5)"/>
<path d="M183.825 210V155.28H183.633L163.857 210H154.257L134.577 155.28H134.385V210H125.265V142.8H138.801L158.961 198.864H159.153L179.409 142.8H192.945V210H183.825Z" stroke="white" stroke-width="10" mask="url(#path-1-outside-1_1_5)"/>
<path d="M219.803 179.76V201.36H248.507V210H210.202V142.8H248.507V151.44H219.803V171.12H242.747V179.76H219.803Z" stroke="white" stroke-width="10" mask="url(#path-1-outside-1_1_5)"/>
<path d="M286.048 183.216H271.552V210H261.953V142.8H296.417L307.552 149.232V176.784L296.417 183.216L311.872 210H301.216L286.048 183.216ZM271.552 151.44V174.576H297.953V151.44H271.552Z" stroke="white" stroke-width="10" mask="url(#path-1-outside-1_1_5)"/>
<path d="M324.859 210V142.8H334.459V210H324.859Z" stroke="white" stroke-width="10" mask="url(#path-1-outside-1_1_5)"/>
<path d="M380.949 142.8L404.949 210H395.541L389.877 194.064H360.117L354.453 210H345.045L369.045 142.8H380.949ZM374.901 152.304L363.189 185.424H386.805L375.093 152.304H374.901Z" stroke="white" stroke-width="10" mask="url(#path-1-outside-1_1_5)"/>
<path d="M415.515 173.52V139.92H429.915V143.952L419.547 173.52H415.515Z" stroke="white" stroke-width="10" mask="url(#path-1-outside-1_1_5)"/>
<path d="M447.203 174.48V148.752L458.339 142.32H480.707L491.842 148.752V158.64H482.242V150.96H456.802V171.312H480.707L491.842 177.744V204.048L480.707 210.48H457.379L446.242 204.048V194.16H455.842V201.84H482.242V180.912H458.339L447.203 174.48Z" stroke="white" stroke-width="10" mask="url(#path-1-outside-1_1_5)"/>
<path d="M11.64 347V279.8H45.144L56.28 286.232V314.744L45.144 321.176H21.24V347H11.64ZM21.24 288.44V312.536H46.68V288.44H21.24Z" stroke="white" stroke-width="10" mask="url(#path-1-outside-1_1_5)"/>
<path d="M122.04 341.048L110.904 347.48H82.776L71.64 341.048V285.752L82.776 279.32H110.904L122.04 285.752V341.048ZM81.24 287.96V338.84H112.44V287.96H81.24Z" stroke="white" stroke-width="10" mask="url(#path-1-outside-1_1_5)"/>
<path d="M163.424 320.216H148.928V347H139.327V279.8H173.792L184.928 286.232V313.784L173.792 320.216L189.247 347H178.592L163.424 320.216ZM148.928 288.44V311.576H175.327V288.44H148.928Z" stroke="white" stroke-width="10" mask="url(#path-1-outside-1_1_5)"/>
<path d="M225.178 288.44V347H215.578V288.44H196.474V279.8H244.282V288.44H225.178Z" stroke="white" stroke-width="10" mask="url(#path-1-outside-1_1_5)"/>
<path d="M265.365 316.76V347H255.765V279.8H295.029V288.44H265.365V308.12H289.269V316.76H265.365Z" stroke="white" stroke-width="10" mask="url(#path-1-outside-1_1_5)"/>
<path d="M356.978 341.048L345.841 347.48H317.714L306.578 341.048V285.752L317.714 279.32H345.841L356.978 285.752V341.048ZM316.177 287.96V338.84H347.378V287.96H316.177Z" stroke="white" stroke-width="10" mask="url(#path-1-outside-1_1_5)"/>
<path d="M374.265 347V279.8H383.865V338.36H408.729V347H374.265Z" stroke="white" stroke-width="10" mask="url(#path-1-outside-1_1_5)"/>
<path d="M420.203 347V279.8H429.802V347H420.203Z" stroke="white" stroke-width="10" mask="url(#path-1-outside-1_1_5)"/>
<path d="M497.509 341.048L486.373 347.48H458.245L447.109 341.048V285.752L458.245 279.32H486.373L497.509 285.752V341.048ZM456.709 287.96V338.84H487.909V287.96H456.709Z" stroke="white" stroke-width="10" mask="url(#path-1-outside-1_1_5)"/>
</svg>
